<svg xmlns="http://www.w3.org/2000/svg" xmlns:xlink="http://www.w3.org/1999/xlink" version="1.1" x="0px" y="0px" viewBox="0 0 100 125" enable-background="new 0 0 100 100" xml:space="preserve"><polygon points="49.733,5 49.733,48.077 19.274,17.617 18.147,18.744 48.606,49.203 7.388,49.203 16.943,39.648 15.882,38.588   4.47,50 15.882,61.412 16.943,60.352 7.388,50.797 48.607,50.797 18.147,81.257 19.274,82.384 49.733,51.924 49.733,95 51.327,95   51.327,51.924 81.787,82.384 82.914,81.257 52.454,50.797 95.53,50.797 95.53,49.203 52.455,49.203 82.914,18.744 81.787,17.617   51.327,48.077 51.327,5 "/></svg>